HIERARCHY
ROOT Hips
{
	OFFSET 0.000000 71.427986 0.000000
	CHANNELS 6 Xposition Yposition Zposition Xrotation Yrotation Zrotation
	JOINT Pelvis
	{
		OFFSET 0.000000 0.000000 0.000000
		CHANNELS 3 Xrotation Yrotation Zrotation
		JOINT LeftUpLeg
		{
			OFFSET 6.797100 -2.508499 -1.318700
			CHANNELS 3 Xrotation Yrotation Zrotation
			JOINT LeftLeg
			{
				OFFSET 0.069008 -29.241863 0.690200
				CHANNELS 3 Xrotation Yrotation Zrotation
				JOINT LeftFoot
				{
					OFFSET -0.069008 -29.568123 -0.266800
					CHANNELS 3 Xrotation Yrotation Zrotation
					JOINT LeftToeBase
					{
						OFFSET 3.145500 -8.631000 16.059900
						CHANNELS 3 Xrotation Yrotation Zrotation
						End Site
						{
							OFFSET 0.000000 18.501587 0.000000
						}
					}
				}
			}
			JOINT Left_ShortSleeve
			{
				OFFSET 0.265923 -10.480953 1.153800
				CHANNELS 3 Xrotation Yrotation Zrotation
				End Site
				{
					OFFSET 1.725763 19.823879 0.000000
				}
			}
		}
		JOINT RightUpLeg
		{
			OFFSET -6.797100 -2.508499 -1.318700
			CHANNELS 3 Xrotation Yrotation Zrotation
			JOINT RightLeg
			{
				OFFSET -0.082453 -29.241932 0.688000
				CHANNELS 3 Xrotation Yrotation Zrotation
				JOINT RightFoot
				{
					OFFSET 0.082453 -29.568058 -0.264600
					CHANNELS 3 Xrotation Yrotation Zrotation
					JOINT RightToeBase
					{
						OFFSET -3.115300 -8.682800 16.113400
						CHANNELS 3 Xrotation Yrotation Zrotation
						End Site
						{
							OFFSET 0.000000 18.567114 0.000000
						}
					}
				}
			}
			JOINT Right_ShortSleeve
			{
				OFFSET -0.265923 -10.480953 1.153800
				CHANNELS 3 Xrotation Yrotation Zrotation
				End Site
				{
					OFFSET -1.725766 19.823910 0.000000
				}
			}
		}
	}
	JOINT Spine
	{
		OFFSET 0.000000 13.368103 0.470500
		CHANNELS 3 Xrotation Yrotation Zrotation
		JOINT Spine1
		{
			OFFSET 0.147000 13.837402 0.538800
			CHANNELS 3 Xrotation Yrotation Zrotation
			JOINT Spine2
			{
				OFFSET 0.168000 16.242897 -1.435500
				CHANNELS 3 Xrotation Yrotation Zrotation
				JOINT Neck
				{
					OFFSET 0.217200 18.631500 -1.679100
					CHANNELS 3 Xrotation Yrotation Zrotation
					JOINT Head
					{
						OFFSET 0.000000 6.599396 1.385900
						CHANNELS 3 Xrotation Yrotation Zrotation
						JOINT Hat
						{
							OFFSET -0.532200 27.220596 -10.096100
							CHANNELS 3 Xrotation Yrotation Zrotation
							End Site
							{
								OFFSET 0.000000 22.029861 0.000000
							}
						}
						JOINT HairD
						{
							OFFSET -10.777400 17.437393 -1.325900
							CHANNELS 3 Xrotation Yrotation Zrotation
							JOINT HairD1
							{
								OFFSET -3.290299 -11.051193 1.062200
								CHANNELS 3 Xrotation Yrotation Zrotation
								End Site
								{
									OFFSET 0.000000 11.579437 0.000000
								}
							}
						}
						JOINT HairB
						{
							OFFSET -10.777400 17.437393 1.467900
							CHANNELS 3 Xrotation Yrotation Zrotation
							JOINT HairB1
							{
								OFFSET -1.561200 -12.956299 3.590200
								CHANNELS 3 Xrotation Yrotation Zrotation
								End Site
								{
									OFFSET 0.000000 13.534866 0.000000
								}
							}
						}
						JOINT HairA
						{
							OFFSET 9.713100 17.437393 1.467900
							CHANNELS 3 Xrotation Yrotation Zrotation
							JOINT HairA1
							{
								OFFSET 1.561200 -12.956299 3.590200
								CHANNELS 3 Xrotation Yrotation Zrotation
								End Site
								{
									OFFSET 0.000000 13.534866 0.000000
								}
							}
						}
						JOINT HairC
						{
							OFFSET 9.713100 17.437393 -1.325900
							CHANNELS 3 Xrotation Yrotation Zrotation
							JOINT HairC1
							{
								OFFSET 3.290300 -11.051193 1.062200
								CHANNELS 3 Xrotation Yrotation Zrotation
								End Site
								{
									OFFSET 0.000000 11.579437 0.000000
								}
							}
						}
					}
				}
				JOINT LeftShoulder
				{
					OFFSET 5.101800 15.108002 -2.763700
					CHANNELS 3 Xrotation Yrotation Zrotation
					JOINT LeftArm
					{
						OFFSET 9.825497 2.506317 -1.597400
						CHANNELS 3 Xrotation Yrotation Zrotation
						JOINT LeftForeArm
						{
							OFFSET 21.966244 0.000000 0.000000
							CHANNELS 3 Xrotation Yrotation Zrotation
							JOINT LeftHand
							{
								OFFSET 33.879036 0.000000 0.000000
								CHANNELS 3 Xrotation Yrotation Zrotation
								JOINT LeftHandThumb1
								{
									OFFSET 6.715286 -2.359680 3.363841
									CHANNELS 3 Xrotation Yrotation Zrotation
									JOINT LeftHandThumb2
									{
										OFFSET 2.507072 -1.447464 1.447461
										CHANNELS 3 Xrotation Yrotation Zrotation
										JOINT LeftHandThumb3
										{
											OFFSET 2.898338 -1.673355 1.673357
											CHANNELS 3 Xrotation Yrotation Zrotation
											End Site
											{
												OFFSET -0.295959 3.727692 -0.131651
											}
										}
									}
								}
								JOINT LeftHandIndex1
								{
									OFFSET 14.190811 -0.254547 3.840278
									CHANNELS 3 Xrotation Yrotation Zrotation
									JOINT LeftHandIndex2
									{
										OFFSET 3.551727 0.000000 -0.000000
										CHANNELS 3 Xrotation Yrotation Zrotation
										JOINT LeftHandIndex3
										{
											OFFSET 2.894196 0.000000 0.000000
											CHANNELS 3 Xrotation Yrotation Zrotation
											End Site
											{
												OFFSET -1.000603 2.690872 0.366626
											}
										}
									}
								}
								JOINT LeftHandMiddle1
								{
									OFFSET 13.776489 0.000000 0.000000
									CHANNELS 3 Xrotation Yrotation Zrotation
									JOINT LeftHandMiddle2
									{
										OFFSET 3.438232 0.000000 0.000000
										CHANNELS 3 Xrotation Yrotation Zrotation
										JOINT LeftHandMiddle3
										{
											OFFSET 3.691551 0.000000 0.000000
											CHANNELS 3 Xrotation Yrotation Zrotation
											End Site
											{
												OFFSET -1.082298 3.499527 0.457670
											}
										}
									}
								}
								JOINT LeftHandRing1
								{
									OFFSET 13.966164 -0.268127 -3.067488
									CHANNELS 3 Xrotation Yrotation Zrotation
									JOINT LeftHandRing2
									{
										OFFSET 3.162567 0.000000 0.000000
										CHANNELS 3 Xrotation Yrotation Zrotation
										JOINT LeftHandRing3
										{
											OFFSET 3.324348 0.000000 0.000000
											CHANNELS 3 Xrotation Yrotation Zrotation
											End Site
											{
												OFFSET -0.861900 3.184998 0.405154
											}
										}
									}
								}
								JOINT LeftHandPinky1
								{
									OFFSET 13.131393 -0.168503 -5.746925
									CHANNELS 3 Xrotation Yrotation Zrotation
									JOINT LeftHandPinky2
									{
										OFFSET 2.849182 0.000000 0.000000
										CHANNELS 3 Xrotation Yrotation Zrotation
										JOINT LeftHandPinky3
										{
											OFFSET 2.805038 0.000000 0.000000
											CHANNELS 3 Xrotation Yrotation Zrotation
											End Site
											{
												OFFSET -0.882500 2.642609 0.325652
											}
										}
									}
								}
							}
							JOINT Left_Sleeve
							{
								OFFSET 6.592125 -0.646545 0.805568
								CHANNELS 3 Xrotation Yrotation Zrotation
								End Site
								{
									OFFSET -0.000179 20.275787 -0.000000
								}
							}
						}
					}
				}
				JOINT RightShoulder
				{
					OFFSET -5.731700 15.108002 -2.763700
					CHANNELS 3 Xrotation Yrotation Zrotation
					JOINT RightArm
					{
						OFFSET -9.825497 2.506317 -1.597400
						CHANNELS 3 Xrotation Yrotation Zrotation
						JOINT RightForeArm
						{
							OFFSET -21.966242 0.000000 0.000000
							CHANNELS 3 Xrotation Yrotation Zrotation
							JOINT RightHand
							{
								OFFSET -33.879032 0.000000 0.000000
								CHANNELS 3 Xrotation Yrotation Zrotation
								JOINT RightHandThumb1
								{
									OFFSET -6.715286 -2.359680 3.363841
									CHANNELS 3 Xrotation Yrotation Zrotation
									JOINT RightHandThumb2
									{
										OFFSET -2.507072 -1.447464 1.447461
										CHANNELS 3 Xrotation Yrotation Zrotation
										JOINT RightHandThumb3
										{
											OFFSET -2.898338 -1.673355 1.673357
											CHANNELS 3 Xrotation Yrotation Zrotation
											End Site
											{
												OFFSET 0.295959 3.727692 -0.131651
											}
										}
									}
								}
								JOINT RightHandIndex1
								{
									OFFSET -14.190811 -0.254547 3.840278
									CHANNELS 3 Xrotation Yrotation Zrotation
									JOINT RightHandIndex2
									{
										OFFSET -3.551727 0.000000 -0.000000
										CHANNELS 3 Xrotation Yrotation Zrotation
										JOINT RightHandIndex3
										{
											OFFSET -2.894196 0.000000 0.000000
											CHANNELS 3 Xrotation Yrotation Zrotation
											End Site
											{
												OFFSET 1.000603 2.690872 0.366626
											}
										}
									}
								}
								JOINT RightHandMiddle1
								{
									OFFSET -13.776489 0.000000 0.000000
									CHANNELS 3 Xrotation Yrotation Zrotation
									JOINT RightHandMiddle2
									{
										OFFSET -3.438232 0.000000 0.000000
										CHANNELS 3 Xrotation Yrotation Zrotation
										JOINT RightHandMiddle3
										{
											OFFSET -3.691551 0.000000 0.000000
											CHANNELS 3 Xrotation Yrotation Zrotation
											End Site
											{
												OFFSET 1.082298 3.499527 0.457670
											}
										}
									}
								}
								JOINT RightHandRing1
								{
									OFFSET -13.966164 -0.268127 -3.067488
									CHANNELS 3 Xrotation Yrotation Zrotation
									JOINT RightHandRing2
									{
										OFFSET -3.162567 0.000000 0.000000
										CHANNELS 3 Xrotation Yrotation Zrotation
										JOINT RightHandRing3
										{
											OFFSET -3.324348 0.000000 0.000000
											CHANNELS 3 Xrotation Yrotation Zrotation
											End Site
											{
												OFFSET 0.861900 3.184998 0.405154
											}
										}
									}
								}
								JOINT RightHandPinky1
								{
									OFFSET -13.131393 -0.168503 -5.746925
									CHANNELS 3 Xrotation Yrotation Zrotation
									JOINT RightHandPinky2
									{
										OFFSET -2.849182 0.000000 0.000000
										CHANNELS 3 Xrotation Yrotation Zrotation
										JOINT RightHandPinky3
										{
											OFFSET -2.805038 0.000000 0.000000
											CHANNELS 3 Xrotation Yrotation Zrotation
											End Site
											{
												OFFSET 0.882500 2.642609 0.325652
											}
										}
									}
								}
							}
							JOINT Right_Sleeve
							{
								OFFSET -6.592125 -0.646545 0.805568
								CHANNELS 3 Xrotation Yrotation Zrotation
								End Site
								{
									OFFSET 0.000179 20.275787 -0.000000
								}
							}
						}
					}
				}
				JOINT Bind_Right_JacketString
				{
					OFFSET -3.534800 11.969597 7.200700
					CHANNELS 3 Xrotation Yrotation Zrotation
					JOINT Bind_Right_JacketString1
					{
						OFFSET -0.319900 -6.102600 2.794100
						CHANNELS 3 Xrotation Yrotation Zrotation
						End Site
						{
							OFFSET 0.000000 6.719452 0.000000
						}
					}
				}
				JOINT Bind_Left_JacketString
				{
					OFFSET 2.904800 11.969597 7.200700
					CHANNELS 3 Xrotation Yrotation Zrotation
					JOINT Bind_Left_JacketString1
					{
						OFFSET 0.364800 -5.904503 3.186800
						CHANNELS 3 Xrotation Yrotation Zrotation
						End Site
						{
							OFFSET 0.000000 6.719513 0.000000
						}
					}
				}
				JOINT HairE
				{
					OFFSET 5.915200 17.612701 -11.592200
					CHANNELS 3 Xrotation Yrotation Zrotation
					JOINT HairE1
					{
						OFFSET 0.289200 -7.171898 -1.284500
						CHANNELS 3 Xrotation Yrotation Zrotation
						End Site
						{
							OFFSET 0.000000 7.291756 0.000000
						}
					}
				}
				JOINT HairF
				{
					OFFSET -0.864800 17.612701 -11.592200
					CHANNELS 3 Xrotation Yrotation Zrotation
					JOINT HairF1
					{
						OFFSET 0.000000 -14.087097 -2.127501
						CHANNELS 3 Xrotation Yrotation Zrotation
						End Site
						{
							OFFSET 0.000000 14.246841 0.000000
						}
					}
				}
				JOINT HairG
				{
					OFFSET -8.087700 17.612701 -11.592200
					CHANNELS 3 Xrotation Yrotation Zrotation
					JOINT HairG1
					{
						OFFSET -0.293600 -6.081398 -0.910100
						CHANNELS 3 Xrotation Yrotation Zrotation
						End Site
						{
							OFFSET 0.000000 6.156120 0.000000
						}
					}
				}
			}
		}
	}
	JOINT Pouch
	{
		OFFSET 0.000000 4.394501 10.847300
		CHANNELS 3 Xrotation Yrotation Zrotation
		End Site
		{
			OFFSET 0.000000 21.880577 0.000000
		}
	}
	JOINT Bag
	{
		OFFSET -13.229000 4.813004 -0.593300
		CHANNELS 3 Xrotation Yrotation Zrotation
		End Site
		{
			OFFSET 0.000000 21.880577 0.000000
		}
	}
	JOINT OccupyGuyFacialAnim_Joint
	{
		OFFSET 1.000000 -70.206398 -1.655000
		CHANNELS 3 Xrotation Yrotation Zrotation
		End Site
		{
			OFFSET 0.000000 21.880577 0.000000
		}
	}
}
MOTION
Frames: 5
Frame Time: 0.016667
-24.363804 69.952614 -22.450649 4.586673 0.685196 -1.552000 -0.000000 0.000000 -0.000000 -41.180450 0.585586 8.744998 50.249965 8.623708 0.917605 9.439089 13.052342 -4.352548 0.000001 0.000000 -0.000000 0.000002 0.000001 0.000000 -1.168173 -12.159373 -6.123814 25.370010 -8.605780 -0.611360 -13.745068 -4.221814 13.954164 -0.000001 0.000001 0.000000 -0.000000 0.000001 -0.000000 1.766667 0.969378 -5.592928 2.669527 2.765865 -1.144402 2.711155 2.741217 -1.111870 -0.169240 1.518456 2.033065 -4.044500 8.985412 5.077306 -0.000000 0.000000 -0.000000 -0.000000 0.000000 -0.000000 -0.000000 0.000000 0.000000 -0.000000 0.000000 -0.000000 -0.000001 0.000002 -0.000000 -0.000000 0.000000 -0.000000 -0.000001 0.000002 -0.000000 -0.000000 0.000000 -0.000000 -0.000000 0.000000 -0.000000 1.433975 -4.062824 -11.219144 -3.341576 24.380987 -39.671286 0.000032 -68.585864 0.000019 0.243789 -28.052562 -0.273022 -1.540044 3.690187 6.142352 3.946764 7.971413 0.752853 -0.000001 0.000001 -0.000001 -0.000002 0.000005 -0.000002 -0.000001 -0.000000 -0.000002 0.000003 0.000002 0.000002 -0.000003 -0.001915 0.015981 0.000001 0.001916 -0.015985 -0.000000 0.000000 0.000001 0.000005 0.000006 0.000002 -0.000004 -0.000003 -0.000035 0.000001 0.000000 -0.000001 -0.018087 4.054246 0.511067 -0.018091 -4.054243 -0.511054 -0.000002 -0.000003 -0.000001 0.000000 0.000001 0.000001 0.748683 -2.655729 10.687282 -17.948784 -16.241860 40.821257 -0.000004 12.072945 0.000002 3.899479 8.202187 6.283289 -1.849258 -3.581793 -6.586131 4.645040 -8.656815 -0.231321 0.000000 -0.000001 0.000003 -0.000002 -0.000001 0.000010 0.000003 0.000013 0.000064 -0.000001 0.000002 0.000002 0.000002 -0.000003 0.000012 -0.000002 0.000002 0.000123 -0.000001 -0.000001 -0.000003 0.000001 0.000001 0.000003 0.000005 0.000001 0.000116 0.000000 0.000001 0.000001 0.000002 -0.000001 0.000015 0.000005 0.000008 0.000012 -0.000001 0.000001 -0.000003 0.000001 -0.000000 -0.000001 0.000000 -0.000000 0.000000 0.000000 0.000000 -0.000001 0.000000 -0.000000 -0.000001 0.000000 -0.000000 -0.000001 0.000000 -0.000000 0.000000 0.000000 0.000000 -0.000001 0.000000 -0.000000 -0.000001 0.000000 -0.000000 -0.000001 0.000000 -0.000000 0.000000 0.000000 0.000000 -0.000001 -0.000000 0.000000 -0.000000 -0.000000 0.000000 -0.000000 -0.000000 0.000000 -0.000000 
-24.131405 70.232666 -22.467070 4.764512 -0.126362 -1.307613 -0.000000 -0.000000 -0.000000 -39.931226 0.437477 10.228513 52.870083 9.194410 1.018454 7.523799 15.201723 -1.777458 -0.000002 -0.000001 -0.000001 0.000003 -0.000000 -0.000000 -1.063161 -12.046544 -6.977251 23.944418 -7.385302 -0.612499 -12.499608 -3.076985 13.953271 0.000001 -0.000001 0.000000 -0.000000 0.000000 -0.000001 1.591598 1.371633 -5.878110 2.374024 3.259591 -1.400063 2.430399 3.238702 -1.364454 -0.224070 1.432987 2.227389 -4.033167 8.722013 5.409510 0.000001 -0.000000 0.000000 0.000001 -0.000000 0.000000 0.000001 -0.000000 0.000000 0.000001 -0.000000 0.000000 0.000001 0.000002 -0.000000 0.000001 -0.000000 0.000000 0.000001 0.000002 -0.000000 0.000001 -0.000000 0.000000 0.000001 -0.000000 0.000000 1.467532 -4.240644 -11.592416 5.654178 26.367476 -43.866822 0.000070 -67.796724 0.000082 0.073301 -29.850222 1.113484 -1.540046 3.690182 6.142355 3.946763 7.971413 0.752859 0.000000 0.000001 -0.000000 0.000004 0.000007 -0.000000 -0.000001 -0.000005 0.000001 0.000003 0.000001 -0.000002 0.000004 -0.001919 0.015984 -0.000000 0.001921 -0.015981 0.000002 0.000002 -0.000001 0.000005 0.000005 0.000001 -0.000005 -0.000001 -0.000036 0.000002 -0.000001 -0.000000 -0.018087 4.054247 0.511067 -0.018091 -4.054245 -0.511055 -0.000001 0.000003 0.000001 -0.000002 0.000001 -0.000005 0.734773 -2.719272 10.596597 -18.801308 -15.324281 39.607048 0.000000 12.657097 -0.000001 3.908923 3.805295 10.426497 -1.849265 -3.581789 -6.586139 4.645043 -8.656815 -0.231318 0.000000 -0.000000 0.000003 -0.000000 0.000000 -0.000003 0.000003 0.000014 0.000065 0.000000 0.000001 0.000000 -0.000001 0.000000 0.000004 -0.000002 0.000000 0.000116 0.000000 -0.000000 -0.000003 -0.000001 -0.000000 0.000006 0.000006 -0.000001 0.000109 0.000001 0.000001 -0.000000 0.000001 -0.000000 -0.000004 0.000006 0.000007 0.000002 0.000000 0.000000 -0.000007 0.000001 -0.000001 -0.000001 0.000000 -0.000001 0.000001 0.000001 -0.000001 0.000000 0.000000 -0.000001 0.000001 0.000000 -0.000001 0.000001 0.000000 -0.000001 0.000001 0.000001 -0.000001 0.000001 0.000000 -0.000001 0.000001 0.000000 -0.000001 0.000001 0.000000 -0.000001 0.000001 0.000001 -0.000001 0.000001 -0.000000 -0.000000 -0.000000 -0.000000 -0.000000 -0.000000 -0.000000 -0.000000 -0.000000 
-23.874954 70.465607 -22.448132 5.090175 -0.797060 -1.125899 -0.000000 0.000000 0.000000 -38.058845 0.347844 11.875681 53.503382 9.570009 1.122422 6.604845 17.449757 0.162341 -0.000001 0.000000 -0.000001 0.000003 -0.000000 0.000000 -0.929564 -11.963454 -7.717702 22.418619 -5.905990 -0.539064 -11.469134 -2.178319 13.682823 -0.000001 0.000002 -0.000000 -0.000000 0.000000 -0.000000 1.391576 1.733113 -6.077111 2.032629 3.712427 -1.607210 2.103382 3.696494 -1.570159 -0.275677 1.345611 2.361043 -3.983146 8.395972 5.665071 0.000001 -0.000001 -0.000000 0.000001 -0.000001 -0.000000 0.000001 -0.000001 0.000000 0.000001 -0.000001 -0.000000 0.000001 -0.000003 0.000000 0.000001 -0.000001 -0.000000 0.000001 -0.000003 0.000000 0.000001 -0.000001 -0.000000 0.000001 -0.000001 -0.000000 1.481605 -4.316641 -11.747585 12.772055 27.916448 -48.290916 -0.000025 -66.123977 -0.000039 0.079370 -30.831583 0.943972 -1.540044 3.690183 6.142350 3.946762 7.971413 0.752857 -0.000001 0.000001 0.000000 0.000005 0.000003 -0.000002 0.000006 0.000001 0.000002 -0.000000 0.000001 -0.000003 0.000002 -0.001921 0.015986 0.000008 0.001921 -0.015986 0.000002 0.000000 0.000001 0.000006 0.000004 0.000001 -0.000008 0.000001 -0.000035 -0.000003 -0.000001 -0.000004 -0.018088 4.054244 0.511065 -0.018090 -4.054243 -0.511049 0.000000 -0.000000 0.000001 0.000001 -0.000002 -0.000001 0.715793 -2.807280 10.472896 -19.463263 -14.733596 38.616677 -0.000004 13.178798 0.000010 4.426774 0.064402 14.071440 -1.849260 -3.581782 -6.586130 4.645042 -8.656816 -0.231324 0.000000 -0.000001 0.000003 0.000001 -0.000003 0.000004 0.000002 0.000012 0.000063 -0.000000 0.000001 -0.000001 0.000001 -0.000003 0.000001 -0.000003 -0.000000 0.000123 -0.000002 0.000002 0.000001 0.000003 -0.000001 0.000003 0.000005 0.000000 0.000105 0.000001 0.000000 0.000001 -0.000000 -0.000001 -0.000001 0.000002 0.000009 0.000012 -0.000000 0.000003 0.000004 -0.000000 0.000000 -0.000000 0.000000 -0.000001 0.000000 0.000001 0.000000 -0.000000 0.000000 -0.000001 0.000000 0.000000 -0.000001 0.000000 0.000000 -0.000001 0.000000 0.000001 0.000000 -0.000000 0.000000 -0.000001 0.000000 0.000000 -0.000001 0.000000 0.000000 -0.000001 0.000000 0.000001 0.000000 -0.000000 -0.000000 0.000000 0.000000 -0.000000 0.000000 0.000000 -0.000000 0.000000 0.000000 
-23.590483 70.642212 -22.410460 5.521723 -1.244418 -1.021008 -0.000000 0.000000 0.000000 -35.718314 0.372757 13.630084 52.403336 9.681822 1.224079 6.304514 19.771092 1.689162 0.000001 -0.000001 -0.000001 0.000000 0.000001 -0.000000 -0.738406 -11.880061 -8.329777 20.822318 -4.025509 -0.388304 -10.573719 -1.835790 13.307813 -0.000000 -0.000001 -0.000000 -0.000000 -0.000001 -0.000001 1.180089 2.047447 -6.170547 1.667891 4.119297 -1.757986 1.751484 4.109057 -1.720882 -0.329439 1.250089 2.443575 -3.904389 7.989617 5.840145 -0.000001 0.000000 0.000000 -0.000001 0.000000 0.000000 -0.000001 0.000000 0.000000 -0.000001 0.000000 0.000000 -0.000002 -0.000002 0.000000 -0.000001 0.000000 0.000000 -0.000002 -0.000002 0.000000 -0.000001 0.000000 0.000000 -0.000001 0.000000 0.000000 1.475786 -4.286667 -11.679664 17.858441 29.300371 -52.334361 0.000011 -63.835296 -0.000002 0.424027 -30.787143 -0.397641 -1.540048 3.690186 6.142354 3.946760 7.971414 0.752855 0.000000 -0.000000 0.000000 0.000003 0.000009 -0.000003 -0.000004 -0.000004 -0.000001 0.000000 -0.000001 -0.000002 -0.000004 -0.001916 0.015985 -0.000000 0.001920 -0.015988 0.000001 0.000002 -0.000004 0.000004 0.000009 0.000002 -0.000004 -0.000004 -0.000036 -0.000001 0.000002 -0.000002 -0.018087 4.054247 0.511065 -0.018094 -4.054241 -0.511054 -0.000003 0.000000 -0.000004 0.000001 0.000002 0.000001 0.694857 -2.907716 10.339739 -19.916140 -14.501851 37.786748 0.000005 13.690952 -0.000009 5.062888 -2.860966 16.812050 -1.849261 -3.581789 -6.586134 4.645041 -8.656812 -0.231325 -0.000001 -0.000001 0.000002 -0.000002 -0.000003 0.000002 0.000002 0.000014 0.000057 -0.000000 -0.000001 -0.000002 -0.000002 -0.000000 -0.000004 -0.000004 0.000003 0.000118 -0.000000 -0.000000 -0.000001 0.000001 0.000001 -0.000010 0.000002 0.000001 0.000115 0.000000 0.000000 -0.000000 0.000001 0.000002 -0.000004 0.000005 0.000009 0.000000 -0.000000 0.000001 0.000001 0.000003 -0.000001 -0.000003 -0.000001 0.000000 0.000000 0.000000 0.000000 -0.000001 -0.000001 0.000000 0.000000 -0.000001 0.000000 0.000000 -0.000001 0.000000 0.000000 0.000000 0.000000 -0.000001 -0.000001 0.000000 0.000000 -0.000001 0.000000 0.000000 -0.000001 0.000000 0.000000 0.000000 0.000000 -0.000001 -0.000000 0.000000 0.000000 -0.000000 0.000000 0.000000 -0.000000 0.000000 0.000000 
-23.267750 70.742027 -22.365150 6.013392 -1.399843 -1.014892 -0.000001 0.000000 -0.000000 -33.119365 0.566667 15.444408 49.920046 9.600430 1.316103 6.356601 22.022891 3.084655 0.000001 -0.000003 -0.000003 -0.000001 0.000000 0.000001 -0.464629 -11.773028 -8.771682 19.228325 -2.329008 -0.229003 -9.871487 -1.670526 13.010785 0.000000 -0.000000 0.000000 0.000000 0.000000 -0.000001 0.967071 2.307792 -6.130561 1.297685 4.466678 -1.850172 1.390937 4.462437 -1.814237 -0.382004 1.148459 2.483355 -3.801413 7.506029 5.941437 -0.000000 0.000001 -0.000000 -0.000000 0.000001 -0.000000 -0.000000 0.000001 -0.000000 -0.000000 0.000001 -0.000000 -0.000000 0.000001 -0.000000 -0.000000 0.000001 -0.000000 -0.000000 0.000001 -0.000000 -0.000000 0.000001 -0.000000 -0.000000 0.000001 -0.000000 1.451632 -4.159455 -11.406985 21.297293 30.658937 -55.705575 0.000021 -61.187430 0.000005 1.191372 -29.728453 -2.176650 -1.540048 3.690184 6.142355 3.946762 7.971411 0.752850 -0.000002 -0.000000 0.000002 0.000002 0.000005 -0.000004 0.000000 0.000001 -0.000002 0.000001 -0.000001 -0.000002 0.000000 -0.001919 0.015985 0.000001 0.001919 -0.015988 0.000003 -0.000002 0.000002 0.000004 0.000006 -0.000000 -0.000003 0.000000 -0.000040 0.000001 -0.000002 -0.000004 -0.018087 4.054250 0.511067 -0.018093 -4.054238 -0.511053 -0.000002 0.000001 0.000003 -0.000002 0.000000 -0.000000 0.674193 -3.020966 10.232318 -20.144687 -14.588017 37.020875 -0.000004 14.208000 -0.000004 5.443049 -5.085628 18.457857 -1.849258 -3.581790 -6.586147 4.645041 -8.656814 -0.231319 -0.000000 -0.000001 0.000000 0.000000 -0.000001 -0.000008 0.000003 0.000012 0.000053 0.000001 -0.000001 -0.000003 0.000001 -0.000001 -0.000010 -0.000003 0.000002 0.000118 0.000001 0.000000 -0.000001 0.000001 0.000000 -0.000008 0.000002 0.000001 0.000105 -0.000000 0.000001 -0.000002 0.000002 -0.000001 -0.000009 0.000007 0.000007 0.000007 -0.000000 0.000001 0.000002 0.000000 -0.000001 -0.000002 -0.000001 -0.000000 -0.000000 -0.000000 0.000000 -0.000000 -0.000001 -0.000000 -0.000001 -0.000001 -0.000000 -0.000001 -0.000001 -0.000000 -0.000000 -0.000000 0.000000 -0.000000 -0.000001 -0.000000 -0.000001 -0.000001 -0.000000 -0.000001 -0.000001 -0.000000 -0.000000 -0.000000 0.000000 -0.000000 -0.000001 0.000000 -0.000000 -0.000001 0.000000 -0.000000 -0.000001 0.000000 -0.000000 
